<?xml version="1.0" encoding="utf-8"?>
<!-- Generator: Adobe Illustrator 25.3.1, SVG Export Plug-In . SVG Version: 6.00 Build 0)  -->
<svg version="1.1" id="Layer_1" xmlns="http://www.w3.org/2000/svg" xmlns:xlink="http://www.w3.org/1999/xlink" x="0px" y="0px"
	 viewBox="0 0 360 360" style="enable-background:new 0 0 360 360;" xml:space="preserve">
<style type="text/css">
	.st0{fill:#328CEB;}
	.st1{fill:#FFFFFF;}
</style>
<circle class="st0" cx="180" cy="180" r="172.4"/>
<g>
	<path class="st1" d="M83.2,90.5c0-6.9,3.8-10.8,9-10.8c5.2,0,9,3.9,9,10.8s-3.8,10.8-9,10.8C87.1,101.3,83.2,97.3,83.2,90.5z
		 M96.3,90.5c0-4.7-1.7-6.7-4.1-6.7c-2.4,0-4.1,2-4.1,6.7c0,4.7,1.7,6.7,4.1,6.7C94.6,97.2,96.3,95.2,96.3,90.5z"/>
	<path class="st1" d="M122.4,80v20.9h-4.8v-17h-4.2V80H122.4z"/>
	<path class="st1" d="M145.1,80v20.9h-4.8v-17h-4.2V80H145.1z"/>
	<path class="st1" d="M167.8,80v20.9h-4.8v-17h-4.2V80H167.8z"/>
	<path class="st1" d="M182.4,90.5c0-6.9,3.8-10.8,9-10.8c5.2,0,9,3.9,9,10.8s-3.8,10.8-9,10.8C186.2,101.3,182.4,97.3,182.4,90.5z
		 M195.4,90.5c0-4.7-1.7-6.7-4.1-6.7c-2.4,0-4.1,2-4.1,6.7c0,4.7,1.7,6.7,4.1,6.7C193.8,97.2,195.4,95.2,195.4,90.5z"/>
	<path class="st1" d="M221.5,80v20.9h-4.8v-17h-4.2V80H221.5z"/>
	<path class="st1" d="M244.2,80v20.9h-4.8v-17h-4.2V80H244.2z"/>
	<path class="st1" d="M258.9,90.5c0-6.9,3.8-10.8,9-10.8c5.2,0,9,3.9,9,10.8s-3.8,10.8-9,10.8C262.7,101.3,258.9,97.3,258.9,90.5z
		 M271.9,90.5c0-4.7-1.7-6.7-4.1-6.7c-2.4,0-4.1,2-4.1,6.7c0,4.7,1.7,6.7,4.1,6.7C270.2,97.2,271.9,95.2,271.9,90.5z"/>
	<path class="st1" d="M83.2,126.3c0-6.9,3.8-10.8,9-10.8c5.2,0,9,3.9,9,10.8c0,6.9-3.8,10.8-9,10.8
		C87.1,137.1,83.2,133.2,83.2,126.3z M96.3,126.3c0-4.7-1.7-6.7-4.1-6.7c-2.4,0-4.1,2-4.1,6.7c0,4.7,1.7,6.7,4.1,6.7
		C94.6,133,96.3,131,96.3,126.3z"/>
	<path class="st1" d="M123.6,115.8v20.9h-4.8v-17h-4.2v-3.9H123.6z"/>
	<path class="st1" d="M147.5,115.8v20.9h-4.8v-17h-4.2v-3.9H147.5z"/>
	<path class="st1" d="M163.4,126.3c0-6.9,3.8-10.8,9-10.8c5.2,0,9,3.9,9,10.8c0,6.9-3.8,10.8-9,10.8
		C167.2,137.1,163.4,133.2,163.4,126.3z M176.4,126.3c0-4.7-1.7-6.7-4.1-6.7c-2.4,0-4.1,2-4.1,6.7c0,4.7,1.7,6.7,4.1,6.7
		C174.7,133,176.4,131,176.4,126.3z"/>
	<path class="st1" d="M203.7,115.8v20.9h-4.8v-17h-4.2v-3.9H203.7z"/>
	<path class="st1" d="M227.6,115.8v20.9h-4.8v-17h-4.2v-3.9H227.6z"/>
	<path class="st1" d="M251.6,115.8v20.9h-4.8v-17h-4.2v-3.9H251.6z"/>
	<path class="st1" d="M275.5,115.8v20.9h-4.8v-17h-4.2v-3.9H275.5z"/>
	<path class="st1" d="M83.2,162.1c0-6.9,3.8-10.8,9-10.8c5.2,0,9,3.9,9,10.8c0,6.9-3.8,10.8-9,10.8C87.1,172.9,83.2,169,83.2,162.1z
		 M96.3,162.1c0-4.7-1.7-6.7-4.1-6.7c-2.4,0-4.1,2-4.1,6.7c0,4.7,1.7,6.7,4.1,6.7C94.6,168.8,96.3,166.8,96.3,162.1z"/>
	<path class="st1" d="M121.2,151.6v20.9h-4.8v-17h-4.2v-3.9H121.2z"/>
	<path class="st1" d="M142.6,151.6v20.9h-4.8v-17h-4.2v-3.9H142.6z"/>
	<path class="st1" d="M164.1,151.6v20.9h-4.8v-17h-4.2v-3.9H164.1z"/>
	<path class="st1" d="M177.5,162.1c0-6.9,3.8-10.8,9-10.8c5.2,0,9,3.9,9,10.8c0,6.9-3.8,10.8-9,10.8
		C181.3,172.9,177.5,169,177.5,162.1z M190.5,162.1c0-4.7-1.7-6.7-4.1-6.7c-2.4,0-4.1,2-4.1,6.7c0,4.7,1.7,6.7,4.1,6.7
		C188.9,168.8,190.5,166.8,190.5,162.1z"/>
	<path class="st1" d="M207.5,162.1c0-6.9,3.8-10.8,9-10.8c5.2,0,9,3.9,9,10.8c0,6.9-3.8,10.8-9,10.8
		C211.4,172.9,207.5,169,207.5,162.1z M220.6,162.1c0-4.7-1.7-6.7-4.1-6.7c-2.4,0-4.1,2-4.1,6.7c0,4.7,1.7,6.7,4.1,6.7
		C218.9,168.8,220.6,166.8,220.6,162.1z"/>
	<path class="st1" d="M245.4,151.6v20.9h-4.8v-17h-4.2v-3.9H245.4z"/>
	<path class="st1" d="M258.9,162.1c0-6.9,3.8-10.8,9-10.8c5.2,0,9,3.9,9,10.8c0,6.9-3.8,10.8-9,10.8
		C262.7,172.9,258.9,169,258.9,162.1z M271.9,162.1c0-4.7-1.7-6.7-4.1-6.7c-2.4,0-4.1,2-4.1,6.7c0,4.7,1.7,6.7,4.1,6.7
		C270.2,168.8,271.9,166.8,271.9,162.1z"/>
	<path class="st1" d="M83.2,197.9c0-6.9,3.8-10.8,9-10.8c5.2,0,9,3.9,9,10.8c0,6.9-3.8,10.8-9,10.8
		C87.1,208.7,83.2,204.8,83.2,197.9z M96.3,197.9c0-4.7-1.7-6.7-4.1-6.7c-2.4,0-4.1,2-4.1,6.7c0,4.7,1.7,6.7,4.1,6.7
		C94.6,204.6,96.3,202.7,96.3,197.9z"/>
	<path class="st1" d="M121.2,187.5v20.9h-4.8v-17h-4.2v-3.9H121.2z"/>
	<path class="st1" d="M142.7,187.5v20.9h-4.8v-17h-4.2v-3.9H142.7z"/>
	<path class="st1" d="M156.1,197.9c0-6.9,3.8-10.8,9-10.8c5.2,0,9,3.9,9,10.8c0,6.9-3.8,10.8-9,10.8
		C159.9,208.7,156.1,204.8,156.1,197.9z M169.1,197.9c0-4.7-1.7-6.7-4.1-6.7c-2.4,0-4.1,2-4.1,6.7c0,4.7,1.7,6.7,4.1,6.7
		C167.5,204.6,169.1,202.7,169.1,197.9z"/>
	<path class="st1" d="M186.2,197.9c0-6.9,3.8-10.8,9-10.8c5.2,0,9,3.9,9,10.8c0,6.9-3.8,10.8-9,10.8
		C190,208.7,186.2,204.8,186.2,197.9z M199.2,197.9c0-4.7-1.7-6.7-4.1-6.7c-2.4,0-4.1,2-4.1,6.7c0,4.7,1.7,6.7,4.1,6.7
		C197.5,204.6,199.2,202.7,199.2,197.9z"/>
	<path class="st1" d="M224.1,187.5v20.9h-4.8v-17h-4.2v-3.9H224.1z"/>
	<path class="st1" d="M237.5,197.9c0-6.9,3.8-10.8,9-10.8c5.2,0,9,3.9,9,10.8c0,6.9-3.8,10.8-9,10.8
		C241.4,208.7,237.5,204.8,237.5,197.9z M250.6,197.9c0-4.7-1.7-6.7-4.1-6.7c-2.4,0-4.1,2-4.1,6.7c0,4.7,1.7,6.7,4.1,6.7
		C248.9,204.6,250.6,202.7,250.6,197.9z"/>
	<path class="st1" d="M275.5,187.5v20.9h-4.8v-17h-4.2v-3.9H275.5z"/>
	<path class="st1" d="M83.2,233.7c0-6.9,3.8-10.8,9-10.8c5.2,0,9,3.9,9,10.8c0,6.9-3.8,10.8-9,10.8
		C87.1,244.5,83.2,240.6,83.2,233.7z M96.3,233.7c0-4.7-1.7-6.7-4.1-6.7c-2.4,0-4.1,2-4.1,6.7c0,4.7,1.7,6.7,4.1,6.7
		C94.6,240.4,96.3,238.5,96.3,233.7z"/>
	<path class="st1" d="M119.9,223.3v20.9h-4.8v-17h-4.2v-3.9H119.9z"/>
	<path class="st1" d="M140.2,223.3v20.9h-4.8v-17h-4.2v-3.9H140.2z"/>
	<path class="st1" d="M152.4,233.7c0-6.9,3.8-10.8,9-10.8c5.2,0,9,3.9,9,10.8c0,6.9-3.8,10.8-9,10.8
		C156.2,244.5,152.4,240.6,152.4,233.7z M165.4,233.7c0-4.7-1.7-6.7-4.1-6.7c-2.4,0-4.1,2-4.1,6.7c0,4.7,1.7,6.7,4.1,6.7
		C163.7,240.4,165.4,238.5,165.4,233.7z"/>
	<path class="st1" d="M181.2,233.7c0-6.9,3.8-10.8,9-10.8c5.2,0,9,3.9,9,10.8c0,6.9-3.8,10.8-9,10.8
		C185,244.5,181.2,240.6,181.2,233.7z M194.2,233.7c0-4.7-1.7-6.7-4.1-6.7c-2.4,0-4.1,2-4.1,6.7c0,4.7,1.7,6.7,4.1,6.7
		C192.5,240.4,194.2,238.5,194.2,233.7z"/>
	<path class="st1" d="M210,233.7c0-6.9,3.8-10.8,9-10.8c5.2,0,9,3.9,9,10.8c0,6.9-3.8,10.8-9,10.8C213.8,244.5,210,240.6,210,233.7z
		 M223,233.7c0-4.7-1.7-6.7-4.1-6.7c-2.4,0-4.1,2-4.1,6.7c0,4.7,1.7,6.7,4.1,6.7C221.3,240.4,223,238.5,223,233.7z"/>
	<path class="st1" d="M238.8,233.7c0-6.9,3.8-10.8,9-10.8c5.2,0,9,3.9,9,10.8c0,6.9-3.8,10.8-9,10.8
		C242.6,244.5,238.8,240.6,238.8,233.7z M251.8,233.7c0-4.7-1.7-6.7-4.1-6.7c-2.4,0-4.1,2-4.1,6.7c0,4.7,1.7,6.7,4.1,6.7
		C250.2,240.4,251.8,238.5,251.8,233.7z"/>
	<path class="st1" d="M275.5,223.3v20.9h-4.8v-17h-4.2v-3.9H275.5z"/>
	<path class="st1" d="M83.2,269.5c0-6.9,3.8-10.8,9-10.8c5.2,0,9,3.9,9,10.8c0,6.9-3.8,10.8-9,10.8
		C87.1,280.3,83.2,276.4,83.2,269.5z M96.3,269.5c0-4.7-1.7-6.7-4.1-6.7c-2.4,0-4.1,2-4.1,6.7c0,4.7,1.7,6.7,4.1,6.7
		C94.6,276.3,96.3,274.3,96.3,269.5z"/>
	<path class="st1" d="M122.4,259.1V280h-4.8v-17h-4.2v-3.9H122.4z"/>
	<path class="st1" d="M145.1,259.1V280h-4.8v-17h-4.2v-3.9H145.1z"/>
	<path class="st1" d="M167.8,259.1V280h-4.8v-17h-4.2v-3.9H167.8z"/>
	<path class="st1" d="M182.4,269.5c0-6.9,3.8-10.8,9-10.8c5.2,0,9,3.9,9,10.8c0,6.9-3.8,10.8-9,10.8
		C186.2,280.3,182.4,276.4,182.4,269.5z M195.4,269.5c0-4.7-1.7-6.7-4.1-6.7c-2.4,0-4.1,2-4.1,6.7c0,4.7,1.7,6.7,4.1,6.7
		C193.8,276.3,195.4,274.3,195.4,269.5z"/>
	<path class="st1" d="M213.6,269.5c0-6.9,3.8-10.8,9-10.8c5.2,0,9,3.9,9,10.8c0,6.9-3.8,10.8-9,10.8
		C217.5,280.3,213.6,276.4,213.6,269.5z M226.7,269.5c0-4.7-1.7-6.7-4.1-6.7c-2.4,0-4.1,2-4.1,6.7c0,4.7,1.7,6.7,4.1,6.7
		C225,276.3,226.7,274.3,226.7,269.5z"/>
	<path class="st1" d="M252.8,259.1V280h-4.8v-17h-4.2v-3.9H252.8z"/>
	<path class="st1" d="M275.5,259.1V280h-4.8v-17h-4.2v-3.9H275.5z"/>
</g>
</svg>
