<?xml version="1.0" encoding="utf-8"?>
<!-- Generator: Adobe Illustrator 25.3.1, SVG Export Plug-In . SVG Version: 6.00 Build 0)  -->
<svg version="1.1" id="Layer_1" xmlns="http://www.w3.org/2000/svg" xmlns:xlink="http://www.w3.org/1999/xlink" x="0px" y="0px"
	 viewBox="0 0 360 360" style="enable-background:new 0 0 360 360;" xml:space="preserve">
<style type="text/css">
	.st0{fill:#5528DC;}
	.st1{fill:#FFFFFF;}
</style>
<circle class="st0" cx="180" cy="180" r="172.4"/>
<g id="g2862" transform="matrix(1.3333333,0,0,-1.3333333,0,682.66667)">
	<g id="g2864">
		<g>
			<g id="g2866">
				<g id="g2872" transform="translate(504.5,35.333)">
					<g id="path2874_2_">
						<path class="st1" d="M-283.6,253.3H-355c-1.4,0-2.6,1.2-2.6,2.6v98.7c0,1.4,1.2,2.6,2.6,2.6h71.3c1.4,0,2.6-1.2,2.6-2.6v-98.7
							C-281,254.4-282.2,253.3-283.6,253.3z M-352.4,258.5h66.2V352h-66.2V258.5z"/>
					</g>
				</g>
				<g id="g2876" transform="translate(298.0244,201.8232)">
					<g id="path2878">
						<path class="st1" d="M-148.5,86.8h-100.4c-1.4,0-2.6,1.2-2.6,2.6v38.4c0,1.3,0.9,2.3,2.1,2.5l24,4.4v7.6
							c0,1.2,0.9,2.3,2.1,2.5L-149,159c0.8,0.1,1.5-0.1,2.1-0.5c0.6-0.5,0.9-1.2,0.9-2V89.4C-145.9,87.9-147.1,86.8-148.5,86.8z
							 M-246.3,92h95.2v61.4l-69.1-13.3v-7.6c0-1.3-0.9-2.3-2.1-2.5l-24-4.4V92z"/>
					</g>
				</g>
			</g>
		</g>
	</g>
	<g id="g2880" transform="translate(99.6226,336.6914)">
		<g id="path2882">
			<path class="st1" d="M-10.6,7.4c-1.4,0-2.5,1-2.6,2.4l-3.8,55.8h-1.7c-1.4,0-2.6,1.2-2.6,2.6s1.2,2.6,2.6,2.6h4.1
				c1.4,0,2.5-1.1,2.6-2.4l1.3-19.6L-8,10.2c0.1-1.4-1-2.7-2.4-2.8C-10.5,7.4-10.6,7.4-10.6,7.4z"/>
		</g>
	</g>
	<g id="g2884" transform="translate(40.3384,124.6631)">
		<g id="path2886">
			<path class="st1" d="M20.2,204.4c-0.1,0-0.1,0-0.2,0c-1.4,0.1-2.5,1.3-2.4,2.8l4.9,73.3c0.1,1.4,1.2,2.4,2.6,2.4h3
				c1.4,0,2.6-1.2,2.6-2.6s-1.2-2.6-2.6-2.6h-0.6l-4.8-70.8C22.6,205.4,21.5,204.4,20.2,204.4z"/>
		</g>
	</g>
	<g id="g2888" transform="translate(178.1606,178.8291)">
		<g id="path2890">
			<path class="st1" d="M-70.1,168.9c-0.1,0-0.1,0-0.2,0c-1.4,0.1-2.5,1.3-2.4,2.8l4.4,65.4c0.1,1.4,1.2,2.4,2.6,2.4H-46
				c1.4,0,2.5-1.1,2.6-2.4l3.2-47.5c0.1-1.4-1-2.7-2.4-2.8c-1.4-0.1-2.7,1-2.8,2.4l-3,45.1h-14.9l-4.2-63
				C-67.6,170-68.7,168.9-70.1,168.9z"/>
		</g>
	</g>
	<g id="g2892">
		<g>
			<g id="g2894">
				<g id="path2900">
					<path class="st1" d="M195.1,288.6h-19.7c-1.4,0-2.6,1.2-2.6,2.6v23.5c0,1.4,1.2,2.6,2.6,2.6h19.7c1.4,0,2.6-1.2,2.6-2.6v-23.5
						C197.6,289.8,196.5,288.6,195.1,288.6z M177.9,293.8h14.5v18.3h-14.5V293.8z"/>
				</g>
			</g>
		</g>
	</g>
	<g id="path2902">
		<path class="st1" d="M206.6,363.1h-42.9c-1.4,0-2.6,1.2-2.6,2.6v9.8c0,1.4,1.2,2.6,2.6,2.6h42.9c1.4,0,2.6-1.2,2.6-2.6v-9.8
			C209.2,364.2,208,363.1,206.6,363.1z M166.4,368.2H204v4.6h-37.7V368.2z"/>
	</g>
	<g id="path2904">
		<path class="st1" d="M180,343h-16.2c-1.4,0-2.6,1.2-2.6,2.6v9.8c0,1.4,1.2,2.6,2.6,2.6H180c1.4,0,2.6-1.2,2.6-2.6v-9.8
			C182.6,344.2,181.4,343,180,343z M166.4,348.2h11v4.6h-11V348.2z"/>
	</g>
	<g id="path2906">
		<path class="st1" d="M206.6,343h-16.2c-1.4,0-2.6,1.2-2.6,2.6v9.8c0,1.4,1.2,2.6,2.6,2.6h16.2c1.4,0,2.6-1.2,2.6-2.6v-9.8
			C209.2,344.2,208,343,206.6,343z M193,348.2h11v4.6h-11V348.2z"/>
	</g>
	<g id="path2908">
		<path class="st1" d="M180,322.9h-16.2c-1.4,0-2.6,1.2-2.6,2.6v9.8c0,1.4,1.2,2.6,2.6,2.6H180c1.4,0,2.6-1.2,2.6-2.6v-9.8
			C182.6,324.1,181.4,322.9,180,322.9z M166.4,328.1h11v4.6h-11V328.1z"/>
	</g>
	<g id="path2910">
		<path class="st1" d="M206.6,322.9h-16.2c-1.4,0-2.6,1.2-2.6,2.6v9.8c0,1.4,1.2,2.6,2.6,2.6h16.2c1.4,0,2.6-1.2,2.6-2.6v-9.8
			C209.2,324.1,208,322.9,206.6,322.9z M193,328.1h11v4.6h-11V328.1z"/>
	</g>
	<g id="g2912">
		<g>
			<g id="g2914">
				<g id="g2920" transform="translate(504.5,293.2656)">
					<g id="path2922">
						<path class="st1" d="M-283.6,94h-25.8c-0.8,0-1.6,0.4-2.1,1.1c-0.5,0.7-0.6,1.5-0.4,2.3l5.9,18.7c0.3,1.1,1.3,1.8,2.5,1.8
							h19.9c1.4,0,2.6-1.2,2.6-2.6V96.6C-281,95.2-282.2,94-283.6,94z M-305.9,99.2h19.7v13.5h-15.4L-305.9,99.2z"/>
					</g>
				</g>
				<g id="g2924" transform="translate(309.4805,481.7227)">
					<g id="path2926">
						<path class="st1" d="M-187.1-56.8c-2,0-3.9,0.8-5.3,2.2c-1.4,1.4-2.2,3.3-2.2,5.3v4.9c0,0,0,0.1-0.1,0.1c-2.8,0-5.4,1-7.4,3
							c-2,1.9-3.2,4.5-3.2,7.3c0,2.8,1,5.5,3,7.5c2,2,4.6,3,7.4,3h5.6c0.5,1.6,1.4,3,2.6,4.2c2,2,4.6,3,7.4,3h15.5
							c5.7,0,10.4-4.7,10.4-10.4c0-2.8-1.1-5.4-3.1-7.4c-2-2-4.6-3-7.4-3h-5.6c-0.5-1.6-1.4-3-2.6-4.2c-2-2-4.6-3-7.4-3h-0.2
							c0,0-0.1,0-0.1-0.1v-4.9C-179.7-53.4-183-56.8-187.1-56.8z M-194.9-28.8c-1.4,0-2.7-0.5-3.7-1.5c-1-1-1.5-2.3-1.5-3.8
							c0-1.4,0.6-2.7,1.6-3.6c1-1,2.4-1.5,3.8-1.5c2.9,0,5.3-2.4,5.3-5.3v-4.9c0-0.6,0.2-1.2,0.7-1.6c0.4-0.4,1-0.7,1.6-0.7
							c1.3,0,2.3,1,2.3,2.3v4.9c0,2.9,2.4,5.3,5.3,5.3h0.2c1.4,0,2.7,0.5,3.7,1.5c0.9,0.9,1.4,2.1,1.5,3.3c0.1,1.4,1.2,2.4,2.6,2.4
							h7.8c1.4,0,2.7,0.5,3.7,1.5c1,1,1.5,2.3,1.5,3.7c0,2.9-2.3,5.2-5.2,5.2h-15.5c-1.4,0-2.7-0.5-3.7-1.5
							c-0.9-0.9-1.4-2.1-1.5-3.3c-0.1-1.4-1.2-2.4-2.6-2.4H-194.9z"/>
					</g>
				</g>
				<g id="g2928" transform="translate(128.1426,426.6191)">
					<g id="path2930">
						<path class="st1" d="M-52.9-13.5c-2,0-3.9,0.8-5.3,2.2C-59.6-9.9-60.4-8-60.4-6v4.9c0,0,0,0.1-0.1,0.1c-2.8,0-5.4,1-7.4,3
							c-1.5,1.5-2.6,3.3-3,5.3c-4.6,1.4-7.9,5.6-7.9,10.5c0,6.1,4.9,11,11,11c5.4,0,9.9-3.9,10.8-9h11.8c5.7,0,10.4-4.7,10.4-10.4
							c0-2.8-1.1-5.4-3-7.4c-2-2-4.6-3-7.4-3h-0.2c0,0-0.1,0-0.1-0.1V-6C-45.4-10.1-48.8-13.5-52.9-13.5z M-65.9,9.2
							c0-1.4,0.6-2.6,1.6-3.6c1-1,2.4-1.5,3.8-1.5c2.9,0,5.3-2.4,5.3-5.3V-6c0-0.6,0.2-1.2,0.7-1.6c0.4-0.4,1-0.7,1.6-0.7
							c1.3,0,2.3,1,2.3,2.3v4.9c0,2.9,2.4,5.3,5.3,5.3h0.2c1.4,0,2.7,0.5,3.7,1.5c1,1,1.5,2.3,1.5,3.7c0,2.9-2.3,5.2-5.2,5.2h-14.2
							c-0.7,0-1.4,0.3-1.9,0.8c-0.5,0.5-0.7,1.2-0.7,2c0,0.1,0,0.2,0,0.4c0,3.2-2.6,5.8-5.8,5.8s-5.8-2.6-5.8-5.8
							c0-3,2.3-5.5,5.3-5.8c1.3-0.1,2.4-1.2,2.4-2.6V9.2z"/>
					</g>
				</g>
				<g id="g2932" transform="translate(118.5415,233.2383)">
					<g id="path2934">
						<path class="st1" d="M-31,133.3h-24.5c-0.7,0-1.4,0.3-1.9,0.8c-0.5,0.5-0.7,1.2-0.7,1.9l1.1,16.1c0.1,1.4,1.2,2.4,2.6,2.4
							h22.3c1.4,0,2.5-1.1,2.6-2.4l1.1-16.1c0-0.7-0.2-1.4-0.7-1.9C-29.6,133.6-30.3,133.3-31,133.3z M-52.8,138.5h19l-0.7,10.9H-52
							L-52.8,138.5z"/>
					</g>
				</g>
				<g id="g2936" transform="translate(254.3945,271.1006)">
					<g id="path2938">
						<path class="st1" d="M-119.9,108.5h-24.2c-0.7,0-1.4,0.3-1.9,0.8c-0.5,0.5-0.7,1.2-0.7,1.9l1,15.3c0.1,1.4,1.2,2.4,2.6,2.4
							h22.1c1.4,0,2.5-1.1,2.6-2.4l1-15.3c0-0.7-0.2-1.4-0.7-1.9C-118.5,108.8-119.2,108.5-119.9,108.5z M-141.4,113.7h18.7
							l-0.7,10.1h-17.3L-141.4,113.7z"/>
					</g>
				</g>
				<g id="path2940">
					<path class="st1" d="M99.8,324.5h-9c-1.4,0-2.6,1.2-2.6,2.6v9c0,1.4,1.2,2.6,2.6,2.6h9c1.4,0,2.6-1.2,2.6-2.6v-9
						C102.4,325.7,101.2,324.5,99.8,324.5z M93.4,329.7h3.8v3.8h-3.8V329.7z"/>
				</g>
				<g id="path2942">
					<path class="st1" d="M118.3,324.5h-9c-1.4,0-2.6,1.2-2.6,2.6v9c0,1.4,1.2,2.6,2.6,2.6h9c1.4,0,2.6-1.2,2.6-2.6v-9
						C120.9,325.7,119.7,324.5,118.3,324.5z M111.9,329.7h3.8v3.8h-3.8V329.7z"/>
				</g>
				<g id="path2944">
					<path class="st1" d="M136.8,324.5h-9c-1.4,0-2.6,1.2-2.6,2.6v9c0,1.4,1.2,2.6,2.6,2.6h9c1.4,0,2.6-1.2,2.6-2.6v-9
						C139.4,325.7,138.2,324.5,136.8,324.5z M130.4,329.7h3.8v3.8h-3.8V329.7z"/>
				</g>
				<g id="g2946" transform="translate(52.5,79)">
					<g id="path2948">
						<path class="st1" d="M84.3,234.3H12.2c-1.4,0-2.6,1.2-2.6,2.6c0,1.4,1.2,2.6,2.6,2.6h72.1c1.4,0,2.6-1.2,2.6-2.6
							C86.9,235.4,85.7,234.3,84.3,234.3z"/>
					</g>
				</g>
			</g>
		</g>
	</g>
</g>
</svg>
